# xmcd
#
# Track frame offsets:
#	225
#	12525
#	26100
#	37200
#	48750
#	62475
#	77025
#	96300
#	114750
#	135450
#	144825
#	166125
#
# Disc length: 2396 seconds
#
# Revision: 0
# Processed by: cddbd v1.5.2PL0 Copyright (c) Steve Scherf et al.
# Submitted via: dBpowerAMP V4.0
#
DISCID=9509590c
DTITLE=Judy 'n' Lynn Lewis - While the Night Goes By
DYEAR=1900
DGENRE=
TTITLE0=Are You From Tsora
TTITLE1=Seasons of Love
TTITLE2=While the Night Goes By
TTITLE3=Dinkle is a Bum
TTITLE4=Luilby In C
TTITLE5=HaGesher
TTITLE6=Picture Puzzle Way
TTITLE7=Light Another Candel
TTITLE8=The Street
TTITLE9=I Knew I'd Always Love You
TTITLE10=The Orchard
TTITLE11=Where the Soul Never Dies
EXTD=
EXTT0=
EXTT1=
EXTT2=
EXTT3=
EXTT4=
EXTT5=
EXTT6=
EXTT7=
EXTT8=
EXTT9=
EXTT10=
EXTT11=
PLAYORDER=
